<svg id="Layer_2" height="512" viewBox="0 0 128 128" width="512" xmlns="http://www.w3.org/2000/svg" data-name="Layer 2"><g fill="#e8f3fc"><path d="m18.273 79.261a1.75 1.75 0 0 1 -1.75-1.75v-28.011a1.75 1.75 0 0 1 3.5 0v28.011a1.75 1.75 0 0 1 -1.75 1.75z"/><path d="m64 53.146a1.75 1.75 0 0 1 -1.75-1.75v-21.546a1.75 1.75 0 0 1 3.5 0v21.55a1.75 1.75 0 0 1 -1.75 1.746z"/><path d="m64 98.429a1.75 1.75 0 0 1 -1.75-1.75v-18.846a1.75 1.75 0 0 1 3.5 0v18.846a1.75 1.75 0 0 1 -1.75 1.75z"/><path d="m109.727 78.511a1.75 1.75 0 0 1 -1.75-1.75v-26.511a1.75 1.75 0 0 1 3.5 0v26.511a1.75 1.75 0 0 1 -1.75 1.75z"/><path d="m96.565 39.242a1.742 1.742 0 0 1 -.927-.267l-20.309-12.716a1.75 1.75 0 1 1 1.857-2.967l20.314 12.717a1.75 1.75 0 0 1 -.931 3.233z"/><path d="m76.913 112.967a1.75 1.75 0 0 1 -.972-3.207l20.977-13.969a1.75 1.75 0 0 1 1.939 2.914l-20.976 13.969a1.742 1.742 0 0 1 -.968.293z"/><path d="m30.891 39.583a1.75 1.75 0 0 1 -.931-3.233l21.889-13.706a1.75 1.75 0 1 1 1.857 2.967l-21.889 13.705a1.742 1.742 0 0 1 -.926.267z"/><path d="m51.087 112.967a1.742 1.742 0 0 1 -.968-.293l-20.976-13.969a1.75 1.75 0 1 1 1.939-2.914l20.977 13.969a1.75 1.75 0 0 1 -.972 3.207z"/><path d="m76.26 59.929a1.75 1.75 0 0 1 -.957-3.217l20.046-13.048a1.75 1.75 0 0 1 1.91 2.934l-20.046 13.048a1.746 1.746 0 0 1 -.953.283z"/><path d="m95.507 84.9a1.742 1.742 0 0 1 -1.006-.319l-16.884-11.888a1.75 1.75 0 0 1 2.016-2.861l16.884 11.889a1.75 1.75 0 0 1 -1.01 3.181z"/><path d="m52.3 60.293a1.746 1.746 0 0 1 -.953-.283l-22.759-14.81a1.75 1.75 0 1 1 1.91-2.934l22.759 14.81a1.75 1.75 0 0 1 -.957 3.217z"/><path d="m31.392 85.677a1.75 1.75 0 0 1 -1.01-3.181l19.7-13.871a1.75 1.75 0 0 1 2.018 2.861l-19.7 13.871a1.742 1.742 0 0 1 -1.008.32z"/></g><path d="m64 79.246-14.625-7.983v-14.625l14.625 7.983z" fill="#ff6ca8"/><path d="m64 79.246 14.625-7.983v-14.625l-14.625 7.983z" fill="#284cb2"/><path d="m49.375 56.638 14.625-8.376 14.625 8.376-14.625 7.983z" fill="#06daf7"/><path d="m18.274 52.458-14.625-7.983v-14.625l14.625 7.983z" fill="#ff6ca8"/><path d="m18.274 52.458 14.625-7.983v-14.625l-14.625 7.983z" fill="#284cb2"/><path d="m3.649 29.85 14.625-8.376 14.625 8.376-14.625 7.983z" fill="#06daf7"/><path d="m18.274 105.537-14.625-7.983v-14.625l14.625 7.983z" fill="#ff6ca8"/><path d="m18.274 105.537 14.625-7.983v-14.625l-14.625 7.983z" fill="#284cb2"/><path d="m3.649 82.929 14.625-8.376 14.625 8.376-14.625 7.983z" fill="#06daf7"/><path d="m109.726 52.458-14.625-7.983v-14.625l14.625 7.983z" fill="#ff6ca8"/><path d="m109.726 52.458 14.625-7.983v-14.625l-14.625 7.983z" fill="#284cb2"/><path d="m95.101 29.85 14.625-8.376 14.625 8.376-14.625 7.983z" fill="#06daf7"/><path d="m109.726 105.537-14.625-7.983v-14.625l14.625 7.983z" fill="#ff6ca8"/><path d="m109.726 105.537 14.625-7.983v-14.625l-14.625 7.983z" fill="#284cb2"/><path d="m95.101 82.929 14.625-8.376 14.625 8.376-14.625 7.983z" fill="#06daf7"/><path d="m64 32.983-14.625-7.984v-14.625l14.625 7.984z" fill="#ff6ca8"/><path d="m64 32.983 14.625-7.984v-14.625l-14.625 7.984z" fill="#284cb2"/><path d="m49.375 10.374 14.625-8.376 14.625 8.376-14.625 7.984z" fill="#06daf7"/><path d="m64 126.25-14.625-7.984v-14.625l14.625 7.984z" fill="#ff6ca8"/><path d="m64 126.25 14.625-7.984v-14.625l-14.625 7.984z" fill="#284cb2"/><path d="m49.375 103.641 14.625-8.376 14.625 8.376-14.625 7.984z" fill="#06daf7"/></svg>