<svg id="Layer_1" enable-background="new 0 0 512 512" height="512" viewBox="0 0 512 512" width="512" xmlns="http://www.w3.org/2000/svg"><g><path d="m511.983 228.857c-.995-51.995-44.49-93.257-96.488-91.376-7.616.273-14.792-3.862-18.446-10.55-22.605-41.376-66.519-69.441-116.989-69.441-51.757 0-96.596 29.528-118.647 72.648-6.423 12.56-19.224 10.9-24.689 10.9-40.126 0-74.199 25.852-86.512 61.804-2.046 5.973-6.938 10.463-12.894 12.556-22.39 7.87-38.251 29.605-37.276 54.902 1.163 30.174 26.849 53.63 57.045 53.63h359.817c52.291.001 96.08-42.792 95.079-95.073z" fill="#9dc6fb"/><path d="m118.252 270.301c-.975-25.298 14.885-47.033 37.276-54.902 5.956-2.094 10.848-6.584 12.894-12.556 12.313-35.952 46.385-61.804 86.512-61.804 5.465 0 18.265 1.66 24.688-10.9 13.005-25.43 33.94-46.125 59.541-58.832-17.812-8.835-37.873-13.817-59.103-13.817-51.757 0-96.596 29.528-118.647 72.648-6.423 12.56-19.224 10.9-24.689 10.9-40.126 0-74.199 25.852-86.512 61.804-2.046 5.973-6.938 10.463-12.894 12.556-22.39 7.87-38.251 29.605-37.276 54.902 1.163 30.174 26.849 53.63 57.045 53.63h118.21c-30.196.001-55.881-23.456-57.045-53.629z" fill="#80b4fb"/><path d="m382.041 230.651h-177.393c6.368 0 12.065 3.961 14.282 9.931l9.06 28.054c3.01 8.103 10.741 13.479 19.385 13.479h133.289c8.414 0 15.235 6.821 15.235 15.236v-52.842c0-7.623-6.236-13.858-13.858-13.858z" fill="#fec458"/><g><g><path d="m281.766 268.636-9.06-28.054c-2.217-5.97-7.913-9.931-14.282-9.931h-53.777c6.368 0 12.065 3.961 14.282 9.931l9.06 28.054c3.01 8.103 10.741 13.479 19.385 13.479h53.777c-8.643 0-16.375-5.377-19.385-13.479z" fill="#f9ab49"/></g></g><path d="m380.663 278.458h-129.632c-8.644 0-16.375-5.376-19.385-13.479l-9.06-24.397c-2.217-5.97-7.913-9.931-14.282-9.931h-76.994c-8.414 0-15.235 6.821-15.235 15.235v193.389c0 8.414 6.821 15.235 15.235 15.235h249.353c8.414 0 15.235-6.821 15.235-15.235v-145.582c.001-8.414-6.82-15.235-15.235-15.235z" fill="#ffe181"/><path d="m164.835 439.275v-193.389c0-8.414 6.821-15.235 15.236-15.235h-48.76c-8.414 0-15.236 6.821-15.236 15.235v193.389c0 8.414 6.821 15.235 15.235 15.235h48.76c-8.414 0-15.235-6.821-15.235-15.235z" fill="#fec458"/><g><path d="m226.33 423.608c-4.268 0-7.727-3.46-7.727-7.727v-71.21c0-4.268 3.46-7.727 7.727-7.727 4.268 0 7.727 3.46 7.727 7.727v71.21c0 4.268-3.46 7.727-7.727 7.727z" fill="#9dc6fb"/></g><g><g><path d="m286.827 395.671c-4.268 0-7.727-3.46-7.727-7.727v-72.946c0-4.268 3.46-7.727 7.727-7.727 4.268 0 7.727 3.46 7.727 7.727v72.946c0 4.267-3.459 7.727-7.727 7.727z" fill="#ff656f"/></g></g><path d="m223.552 315.467-19.535 30.814c-1.389 2.19.185 5.05 2.778 5.05h39.071c2.593 0 4.166-2.86 2.778-5.05l-19.535-30.814c-1.293-2.037-4.265-2.037-5.557 0z" fill="#9dc6fb"/><path d="m284.049 415.412-19.535-30.814c-1.389-2.19.185-5.05 2.778-5.05h39.071c2.593 0 4.166 2.86 2.778 5.05l-19.535 30.814c-1.293 2.037-4.265 2.037-5.557 0z" fill="#ff656f"/><path d="m224.28 346.281 12.182-19.215-7.353-11.599c-1.292-2.037-4.264-2.037-5.556 0l-19.535 30.814c-1.389 2.19.185 5.05 2.778 5.05h20.262c-2.593 0-4.167-2.86-2.778-5.05z" fill="#80b4fb"/><path d="m284.776 384.598c-1.389-2.19.185-5.05 2.777-5.05h-20.262c-2.593 0-4.166 2.86-2.778 5.05l19.535 30.814c1.292 2.037 4.264 2.037 5.556 0l7.353-11.599z" fill="#ff4756"/></g></svg>