<?xml version="1.0" encoding="iso-8859-1"?>
<!-- Generator: Adobe Illustrator 19.0.0, SVG Export Plug-In . SVG Version: 6.00 Build 0)  -->
<svg version="1.1" id="Capa_1" xmlns="http://www.w3.org/2000/svg" xmlns:xlink="http://www.w3.org/1999/xlink" x="0px" y="0px"
	 viewBox="0 0 512 512" style="enable-background:new 0 0 512 512;" xml:space="preserve">
<circle style="fill:#FAD307;" cx="256" cy="256" r="256"/>
<path style="fill:#656D7A;" d="M382.984,87.14v155.376c0,0-8.168,125.876-171.884,171.984
	C47.284,368.388,39.216,242.512,39.216,242.512V87.14C105.34,92.916,162.104,72.7,211.1,30.676
	C259.996,72.7,316.76,92.916,382.984,87.14z"/>
<path style="fill:#FDFEFF;" d="M362.22,229.784V108.872c-0.384,0.004-1.164,0.004-1.164,0.004
	c-54.704,0-105.064-17.308-149.956-51.488v172.396H362.22z"/>
<path style="fill:#5F87C4;" d="M211.104,57.388c-0.004-0.004-0.012-0.008-0.012-0.008c-44.968,34.18-95.336,51.496-149.976,51.496
	c-0.372,0-0.748,0-1.128-0.004v120.912h151.116V57.388z"/>
<path style="fill:#FDFEFF;" d="M59.988,229.784v11.868c0.904,9.568,13.688,109.964,151.112,151.224h0.004V229.784H59.988z"/>
<path style="fill:#5F87C4;" d="M211.104,229.784v163.088c137.712-41.368,150.272-142.208,151.116-151.2v-11.888L211.104,229.784
	L211.104,229.784z"/>
<circle style="fill:#F1592F;" cx="360.12" cy="368.68" r="112.68"/>
<polygon style="fill:#FDFEFF;" points="342.036,421.744 293.436,368.608 308.192,355.108 342.036,392.108 412.032,315.576 
	426.792,329.076 "/>
<g>
</g>
<g>
</g>
<g>
</g>
<g>
</g>
<g>
</g>
<g>
</g>
<g>
</g>
<g>
</g>
<g>
</g>
<g>
</g>
<g>
</g>
<g>
</g>
<g>
</g>
<g>
</g>
<g>
</g>
</svg>
